<svg width="19" height="19" viewBox="0 0 19 19" fill="none" xmlns="http://www.w3.org/2000/svg">
<g clip-path="url(#clip0_1_538)">
<path d="M5.73059 2.38086V3.11914H4.21887C3.91418 3.11914 3.62415 3.17773 3.34875 3.29492C3.07336 3.41211 2.83606 3.57617 2.63684 3.78711C2.43762 3.98633 2.27649 4.22363 2.15344 4.49902C2.0304 4.77441 1.96887 5.06445 1.96887 5.36914V15.8809C1.96887 16.1855 2.02747 16.4756 2.14465 16.751C2.26184 17.0264 2.4259 17.2637 2.63684 17.4629C2.83606 17.6621 3.07336 17.8232 3.34875 17.9463C3.62415 18.0693 3.91418 18.1309 4.21887 18.1309H14.7306C15.0353 18.1309 15.3253 18.0723 15.6007 17.9551C15.8761 17.8379 16.1134 17.6738 16.3126 17.4629C16.5118 17.2637 16.673 17.0264 16.796 16.751C16.9191 16.4756 16.9806 16.1855 16.9806 15.8809V5.36914C16.9806 5.06445 16.922 4.77441 16.8048 4.49902C16.6876 4.22363 16.5236 3.98633 16.3126 3.78711C16.1134 3.58789 15.8761 3.42676 15.6007 3.30371C15.3253 3.18066 15.0353 3.11914 14.7306 3.11914H13.2189V2.38086C13.2189 2.16992 13.1456 1.99121 12.9991 1.84473C12.8527 1.69824 12.6798 1.625 12.4806 1.625C12.2697 1.625 12.0909 1.69824 11.9445 1.84473C11.798 1.99121 11.7247 2.16992 11.7247 2.38086V3.11914H7.22473V2.38086C7.22473 2.16992 7.15149 1.99121 7.005 1.84473C6.85852 1.69824 6.67981 1.625 6.46887 1.625C6.26965 1.625 6.0968 1.69824 5.95032 1.84473C5.80383 1.99121 5.73059 2.16992 5.73059 2.38086ZM15.4689 7.61914H3.48059V5.36914C3.48059 5.27539 3.49817 5.18164 3.53333 5.08789C3.56848 4.99414 3.62122 4.91211 3.69153 4.8418C3.76184 4.77148 3.84094 4.71875 3.92883 4.68359C4.01672 4.64844 4.1134 4.63086 4.21887 4.63086H5.73059V5.36914C5.73059 5.58008 5.80383 5.75879 5.95032 5.90527C6.0968 6.05176 6.26965 6.125 6.46887 6.125C6.67981 6.125 6.85852 6.05176 7.005 5.90527C7.15149 5.75879 7.22473 5.58008 7.22473 5.36914V4.63086H11.7247V5.36914C11.7247 5.58008 11.798 5.75879 11.9445 5.90527C12.0909 6.05176 12.2697 6.125 12.4806 6.125C12.6798 6.125 12.8527 6.05176 12.9991 5.90527C13.1456 5.75879 13.2189 5.58008 13.2189 5.36914V4.63086H14.7306C14.8243 4.63086 14.9181 4.64844 15.0118 4.68359C15.1056 4.71875 15.1876 4.77148 15.2579 4.8418C15.3282 4.91211 15.381 4.99414 15.4161 5.08789C15.4513 5.18164 15.4689 5.27539 15.4689 5.36914V7.61914ZM3.48059 9.13086H15.4689V15.8809C15.4689 15.9746 15.4513 16.0684 15.4161 16.1621C15.381 16.2559 15.3282 16.3379 15.2579 16.4082C15.1876 16.4785 15.1085 16.5312 15.0206 16.5664C14.9327 16.6016 14.8361 16.6191 14.7306 16.6191H4.21887C4.12512 16.6191 4.03137 16.6016 3.93762 16.5664C3.84387 16.5312 3.76184 16.4785 3.69153 16.4082C3.62122 16.3379 3.56848 16.2559 3.53333 16.1621C3.49817 16.0684 3.48059 15.9746 3.48059 15.8809V9.13086Z" fill="#707070"/>
</g>
<defs>
<clipPath id="clip0_1_538">
<rect width="18" height="18" fill="white" transform="matrix(1 0 0 -1 0.5 18.5)"/>
</clipPath>
</defs>
</svg>
