<svg width="36" height="36" viewBox="0 0 37 36" fill="none" xmlns="http://www.w3.org/2000/svg">
<g clip-path="url(#clip0_81_321)">
<path d="M33.2107 10.5129V15.5328C33.0205 16.3361 32.5989 17.0739 31.9763 17.6723C31.1005 18.5129 29.9333 18.9762 28.6913 18.9762H20.8828V17.4479C20.8828 16.802 20.3543 16.2737 19.7084 16.2737H17.7128C17.0673 16.2737 16.5389 16.8022 16.5389 17.4479V18.9762H8.72991C7.48798 18.9762 6.32102 18.5129 5.44493 17.6723C4.82172 17.0748 4.40093 16.3364 4.21069 15.5334V10.5129C4.21069 9.43081 5.09664 8.54486 6.17892 8.54486H31.2428C32.3249 8.54486 33.2107 9.43081 33.2107 10.5129ZM19.7086 21.6785C19.7587 21.6781 19.8067 21.6579 19.8422 21.6225C19.8777 21.587 19.8978 21.539 19.8982 21.4889V17.4479C19.8982 17.3446 19.812 17.2576 19.7086 17.2576H17.7128C17.6099 17.2576 17.5226 17.3446 17.5226 17.4479V21.4889C17.5226 21.5921 17.6099 21.6785 17.7128 21.6785H19.7086ZM32.6582 18.3821C31.5974 19.3996 30.1895 19.9604 28.6913 19.9604H20.8828V21.489C20.8828 22.134 20.3543 22.6628 19.7084 22.6628H17.7128C17.0673 22.6628 16.5389 22.1341 16.5389 21.489V19.9604H8.72991C7.23206 19.9604 5.82382 19.3996 4.76314 18.3821C4.56406 18.1911 4.37941 17.9857 4.21069 17.7674L4.21069 28.4233C4.21069 29.5063 5.09664 30.3916 6.17892 30.3916H31.2428C32.3249 30.3916 33.2107 29.5063 33.2107 28.4233V17.7674C33.042 17.9857 32.8574 18.1912 32.6582 18.3821ZM23.2486 5.18507C23.066 5.002 22.8491 4.85681 22.6102 4.75784C22.3714 4.65888 22.1153 4.60809 21.8568 4.6084H15.5652C15.3066 4.60804 15.0505 4.6588 14.8116 4.75777C14.5727 4.85673 14.3557 5.00195 14.1731 5.18507C13.9901 5.36766 13.8451 5.58458 13.7462 5.82338C13.6473 6.06219 13.5965 6.31816 13.5968 6.57663V7.56075H15.2694V6.57663C15.2694 6.52081 15.2846 6.43917 15.3564 6.36783C15.3836 6.34009 15.4161 6.31811 15.452 6.30319C15.4879 6.28827 15.5264 6.28071 15.5652 6.28098H21.8569C21.9123 6.28098 21.9941 6.29649 22.0653 6.36783C22.1369 6.43917 22.1521 6.52081 22.1521 6.57663V7.56075H23.8247V6.57663C23.825 6.31818 23.7742 6.06222 23.6754 5.82342C23.5765 5.58463 23.4315 5.3677 23.2486 5.18507Z" fill="white"/>
</g>
<defs>
<clipPath id="clip0_81_321">
<rect width="29" height="29" fill="white" transform="translate(4.42188 3.5)"/>
</clipPath>
</defs>
</svg>
