<svg width="18" height="18" viewBox="0 0 18 18" fill="none" xmlns="http://www.w3.org/2000/svg">
<path d="M13.4524 17.0761C14.3025 17.0781 15.1194 16.7444 15.7228 16.1469C16.3265 15.5492 16.6667 14.7364 16.6667 13.8879V7.46924C16.6667 6.72882 16.336 6.02791 15.7661 5.55472L15.7603 5.54991L15.7544 5.54523L10.8413 1.64982C10.8409 1.64954 10.8406 1.64927 10.8402 1.64899C9.73817 0.769095 8.16242 0.79497 7.09031 1.70946L2.30053 5.54348C1.70712 6.00269 1.35116 6.70355 1.33352 7.45357L1.33333 7.4614V7.46924V13.8813C1.33333 15.6503 2.77658 17.0761 4.54665 17.0761H5.95853C6.64427 17.0761 7.23305 16.6384 7.44834 16.0227L11.1046 15.5056L10.438 15.5007C10.438 15.5016 10.438 15.5026 10.438 15.5035C10.4356 15.9208 10.6009 16.321 10.8956 16.6157C11.1908 16.911 11.5915 17.0761 12.0085 17.0761H13.4524ZM13.4524 17.0761C13.4522 17.0761 13.4519 17.0761 13.4516 17.0761L13.4533 16.4095V17.0761H13.4524Z" stroke="#7D7D7D" stroke-width="1.33333"/>
</svg>
