<svg width="20" height="20" viewBox="0 0 20 20" fill="none" xmlns="http://www.w3.org/2000/svg">
<g clip-path="url(#clip0_1_2096)">
<path d="M15.4173 13.2653C15.4173 13.6267 15.2737 13.9732 15.0182 14.2288C14.7627 14.4843 14.4161 14.6278 14.0548 14.6278H5.87978L3.15479 17.3528V6.45283C3.15479 6.09147 3.29833 5.74492 3.55385 5.4894C3.80937 5.23388 4.15593 5.09033 4.51728 5.09033H14.0548C14.4161 5.09033 14.7627 5.23388 15.0182 5.4894C15.2737 5.74492 15.4173 6.09147 15.4173 6.45283V13.2653Z" stroke="#7D7D7D" stroke-width="1.09" stroke-linecap="round" stroke-linejoin="round"/>
<rect x="9.67393" y="0.593262" width="8.72" height="8.72" rx="4.36" fill="url(#paint0_linear_1_2096)"/>
<path d="M13.8171 6.77271V4.07986L13.2187 4.22701L13.0618 3.60898L14.0477 3.31468H14.5627V6.77271H13.8171Z" fill="white"/>
</g>
<defs>
<linearGradient id="paint0_linear_1_2096" x1="17.2636" y1="0.593262" x2="11.0465" y2="9.31326" gradientUnits="userSpaceOnUse">
<stop stop-color="#FF5E5E"/>
<stop offset="1" stop-color="#ED1F03"/>
</linearGradient>
<clipPath id="clip0_1_2096">
<rect width="19.62" height="19.62" fill="white" transform="translate(0 0.321045)"/>
</clipPath>
</defs>
</svg>
