<svg width="19" height="20" viewBox="0 0 19 20" fill="none" xmlns="http://www.w3.org/2000/svg">
<g clip-path="url(#clip0_1_2079)">
<path d="M11.4228 0.76709C11.5922 0.76689 11.76 0.800165 11.9165 0.865003C12.073 0.929841 12.2151 1.02496 12.3348 1.14491C12.4546 1.26456 12.5496 1.40669 12.6143 1.56314C12.6657 1.68709 12.6972 1.8181 12.708 1.95139H12.3604C12.3516 1.87389 12.3322 1.78598 12.2949 1.69541C12.2528 1.59322 12.188 1.48766 12.0901 1.38984C12.09 1.38968 12.0898 1.38951 12.0896 1.38935L11.4228 0.76709ZM11.4228 0.76709H7.3008C7.13137 0.766855 6.96357 0.800112 6.80704 0.864952C6.65051 0.929791 6.50834 1.02493 6.3887 1.14491C6.26885 1.26454 6.17381 1.40666 6.10902 1.56311C6.05769 1.68707 6.02616 1.81809 6.01537 1.95139H6.363C6.37175 1.87389 6.3912 1.78598 6.42852 1.69542C6.47043 1.59367 6.53489 1.48858 6.63202 1.39113C6.63243 1.39072 6.63284 1.39031 6.63325 1.3899C6.63344 1.38971 6.63363 1.38952 6.63382 1.38933C6.72097 1.30187 6.82452 1.23243 6.93857 1.18499C6.93886 1.18487 6.93916 1.18474 6.93945 1.18462C7.05386 1.13717 7.1765 1.11281 7.30032 1.11291C7.30048 1.11291 7.30064 1.11292 7.3008 1.11292L11.4228 0.76709ZM12.7122 2.59615V2.05662V2.59615ZM12.7122 2.59615H12.3664H12.7122ZM11.952 1.95139H11.6164V2.05662V2.59615H11.9622V2.05662V2.05583C11.9622 2.02068 11.9588 1.9857 11.952 1.95139ZM11.952 1.95139C11.9452 1.91675 11.935 1.88279 11.9214 1.85002C11.8944 1.78476 11.8547 1.72549 11.8048 1.67559L11.8045 1.67529M11.952 1.95139L11.8045 1.67529M11.8045 1.67529L11.5595 1.91981M11.8045 1.67529L11.8037 1.67455M11.8037 1.67455L11.5595 1.91981M11.8037 1.67455L11.8037 1.67452C11.7539 1.62454 11.6946 1.5849 11.6294 1.55789C11.5642 1.53087 11.4943 1.51701 11.4237 1.51709L11.4229 1.51709L11.4228 1.51709L7.30313 1.51709L11.8037 1.67455ZM11.5595 1.91981L11.5595 1.91982L11.5595 1.91981ZM1.18934 8.78485C0.904372 8.51162 0.71024 8.18357 0.611633 7.8303V4.63559C0.611633 4.34085 0.856261 4.09615 1.15116 4.09615H17.5723C17.867 4.09615 18.1116 4.34074 18.1116 4.63559V7.82993C18.0131 8.18272 17.8189 8.51077 17.5336 8.78511C17.103 9.19836 16.5258 9.43045 15.9007 9.43045H11.5347V9.17915C11.5347 8.34168 10.8525 7.65984 10.0153 7.65984H8.70784C7.87051 7.65984 7.18872 8.34208 7.18872 9.17915V9.43045H2.8225C2.19749 9.43045 1.62038 9.19841 1.18952 8.78502L1.18934 8.78485ZM7.107 3.34615H7.857V3.45139H7.107H6.01117H5.26117V3.34615H6.01117H7.107ZM7.107 2.59615H6.76117L7.107 1.95139V2.05662V2.59615ZM6.357 2.59615H6.01117V2.05662C6.01117 2.05565 6.01117 2.05467 6.01117 2.0537L6.357 2.59615ZM0.611633 16.37V11.0044C1.27845 11.3773 2.03668 11.5753 2.8225 11.5753H7.18872V11.8268C7.18872 12.6636 7.87063 13.3458 8.70784 13.3458H10.0153C10.8525 13.3458 11.5347 12.6637 11.5347 11.8268V11.5753H15.9007C16.6867 11.5753 17.4448 11.3773 18.1116 11.0044V16.37C18.1116 16.6653 17.8671 16.9095 17.5723 16.9095H1.15116C0.856118 16.9095 0.611633 16.6651 0.611633 16.37ZM9.38968 9.80451V11.201H9.3332V9.80451H9.38968Z" stroke="#7D7D7D" stroke-width="1.5"/>
</g>
<defs>
<clipPath id="clip0_1_2079">
<rect width="19" height="19" fill="white" transform="translate(0 0.0410156)"/>
</clipPath>
</defs>
</svg>
