<svg width="22" height="17" viewBox="0 0 22 17" fill="none" xmlns="http://www.w3.org/2000/svg">
<path fill-rule="evenodd" clip-rule="evenodd" d="M11.2411 10.1748L11.3491 10.1748L11.5908 10.1756C13.4385 10.1878 17.6608 10.3744 17.6608 13.2363C17.6608 16.0794 13.5857 16.2648 11.6196 16.2769L10.8912 16.2769C9.0435 16.2647 4.82034 16.0783 4.82034 13.22C4.82034 10.3734 9.0435 10.1877 10.8912 10.1756L11.133 10.1748C11.1705 10.1748 11.2065 10.1748 11.2411 10.1748ZM11.2411 11.6103C8.96715 11.6103 6.25588 11.8898 6.25588 13.22C6.25588 14.5202 8.80532 14.8242 11.0332 14.8414L11.2411 14.8422C13.515 14.8422 16.2253 14.5637 16.2253 13.2363C16.2253 11.8926 13.515 11.6103 11.2411 11.6103ZM18.8529 9.7864C21.1718 10.1338 21.6589 11.2229 21.6589 12.0756C21.6589 12.5962 21.4541 13.5466 20.0855 14.0681C20.0013 14.0997 19.9152 14.115 19.83 14.115C19.541 14.115 19.2682 13.939 19.1591 13.6528C19.0175 13.2824 19.2041 12.8671 19.5745 12.7264C20.2234 12.4795 20.2234 12.2067 20.2234 12.0756C20.2234 11.6564 19.6903 11.3636 18.6395 11.2066C18.248 11.1473 17.9772 10.7827 18.0356 10.3893C18.094 9.99694 18.4576 9.73568 18.8529 9.7864ZM4.44557 10.3893C4.50394 10.7827 4.23311 11.1473 3.84168 11.2066C2.79086 11.3636 2.2578 11.6564 2.2578 12.0756C2.2578 12.2067 2.2578 12.4785 2.90762 12.7264C3.27799 12.8671 3.46461 13.2824 3.32297 13.6528C3.21387 13.939 2.94111 14.115 2.65209 14.115C2.56692 14.115 2.48078 14.0997 2.39656 14.0681C1.02705 13.5456 0.82225 12.5953 0.82225 12.0756C0.82225 11.2239 1.30938 10.1338 3.62922 9.7864C4.02447 9.73663 4.38623 9.99694 4.44557 10.3893ZM11.2411 0.208252C13.6528 0.208252 15.6137 2.17016 15.6137 4.58092C15.6137 6.99168 13.6528 8.95359 11.2411 8.95359H11.2152C10.0476 8.94976 8.95375 8.4923 8.13453 7.66543C7.3134 6.83951 6.86455 5.74276 6.8693 4.57805C6.8693 2.17016 8.83029 0.208252 11.2411 0.208252ZM11.2411 1.6438C9.62176 1.6438 8.30486 2.96163 8.30486 4.58092C8.30201 5.36569 8.60252 6.09973 9.15281 6.65385C9.7031 7.20797 10.4362 7.51517 11.2171 7.51805L11.2411 8.23582V7.51805C12.8603 7.51805 14.1782 6.20117 14.1782 4.58092C14.1782 2.96163 12.8603 1.6438 11.2411 1.6438ZM17.1641 1.14566C18.8466 1.42224 20.0687 2.86162 20.0687 4.568C20.0649 6.28587 18.7815 7.7597 17.0828 7.998C17.0493 8.00278 17.0158 8.0047 16.9832 8.0047C16.631 8.0047 16.3238 7.74534 16.2731 7.38645C16.2186 6.99312 16.4913 6.6304 16.8847 6.57585C17.88 6.43612 18.6312 5.57288 18.6332 4.56609C18.6332 3.56791 17.9173 2.7238 16.9306 2.56207C16.5401 2.49795 16.275 2.12853 16.3392 1.73711C16.4042 1.34568 16.7708 1.08346 17.1641 1.14566ZM6.14295 1.73711C6.20707 2.12853 5.94198 2.49795 5.55151 2.56207C4.56481 2.7238 3.84895 3.56791 3.84895 4.568C3.85087 5.57288 4.60214 6.43708 5.59649 6.57585C5.98983 6.6304 6.26258 6.99312 6.20803 7.38645C6.15731 7.74534 5.8501 8.0047 5.49792 8.0047C5.46538 8.0047 5.43188 8.00278 5.39838 7.998C3.69966 7.7597 2.41724 6.28587 2.41341 4.56992C2.41341 2.86162 3.63554 1.42224 5.31799 1.14566C5.7209 1.0825 6.07788 1.3476 6.14295 1.73711Z" fill="#7D7D7D"/>
</svg>
