<svg width="19" height="20" viewBox="0 0 19 20" fill="none" xmlns="http://www.w3.org/2000/svg">
<path d="M14.0066 6.47841C14.0066 5.25362 13.52 4.079 12.654 3.21295C11.7879 2.3469 10.6133 1.86035 9.38851 1.86035C8.16372 1.86035 6.9891 2.3469 6.12305 3.21295C5.257 4.079 4.77045 5.25362 4.77045 6.47841C4.77045 11.8661 2.46143 13.4055 2.46143 13.4055H16.3156C16.3156 13.4055 14.0066 11.8661 14.0066 6.47841Z" stroke="#7D7D7D" stroke-width="1.31944" stroke-linecap="round" stroke-linejoin="round"/>
<path d="M10.72 16.4841C10.5847 16.7174 10.3905 16.911 10.1568 17.0456C9.92312 17.1802 9.65818 17.2511 9.3885 17.2511C9.11882 17.2511 8.85388 17.1802 8.62019 17.0456C8.3865 16.911 8.19228 16.7174 8.05696 16.4841" stroke="#7D7D7D" stroke-width="1.31944" stroke-linecap="round" stroke-linejoin="round"/>
</svg>
